<svg width="543" height="84" viewBox="0 0 543 84" fill="none" xmlns="http://www.w3.org/2000/svg">
<mask id="path-1-inside-1_14_171" fill="white">
<path d="M36 37H536V77H36V37Z"/>
</mask>
<path d="M536 77V78H537V77H536ZM535 37V77H537V37H535ZM536 76H36V78H536V76Z" fill="white" mask="url(#path-1-inside-1_14_171)"/>
<mask id="path-3-inside-2_14_171" fill="white">
<path d="M43 44H543V84H43V44Z"/>
</mask>
<path d="M543 84V85H544V84H543ZM542 44V84H544V44H542ZM543 83H43V85H543V83Z" fill="white" mask="url(#path-3-inside-2_14_171)"/>
<mask id="path-5-inside-3_14_171" fill="white">
<path d="M6 6H506V46H6V6Z"/>
</mask>
<path d="M6 6V5H5V6H6ZM6 7H506V5H6V7ZM7 46V6H5V46H7Z" fill="white" mask="url(#path-5-inside-3_14_171)"/>
<mask id="path-7-inside-4_14_171" fill="white">
<path d="M0 0H500V40H0V0Z"/>
</mask>
<path d="M0 0V-1H-1V0H0ZM0 1H500V-1H0V1ZM1 40V0H-1V40H1Z" fill="white" mask="url(#path-7-inside-4_14_171)"/>
</svg>
