<svg width="40" height="41" viewBox="0 0 40 41" fill="none" xmlns="http://www.w3.org/2000/svg">
<path d="M20.0264 0L0 13.1136V13.7929L20.0264 4.43027L34.9523 10.8099H32.135V12.4343V26.6407C31.8826 26.5285 31.6068 26.4221 31.3133 26.3158C30.9376 26.18 30.5796 26.0736 30.2451 25.9909C29.4879 25.731 28.5547 25.477 27.6626 25.2526C26.6413 24.9926 25.7608 24.8036 24.8686 24.6619C25.2736 24.337 26.3008 23.4214 26.336 22.1514C26.3712 20.775 25.4673 19.6645 24.3345 18.8847C23.2017 18.105 21.9751 17.5794 21.2708 16.4098C20.7308 15.5119 20.6838 14.5431 20.7248 13.852H20.0323H19.3514C19.3983 14.5372 19.3456 15.5119 18.8056 16.4098C18.1013 17.5794 16.8745 18.105 15.7417 18.8847C14.6089 19.6645 13.705 20.775 13.7403 22.1514C13.7755 23.4214 14.8026 24.337 15.2076 24.6619C14.2509 24.9099 13.1299 25.288 11.9325 25.861C11.1108 26.2568 10.3947 26.6762 9.77841 27.0837V27.1024C8.25928 28.2533 7.13899 29.3564 6.39765 30.1554C4.07924 32.66 2.78205 35.0583 1.80186 36.9072C0.974277 38.4666 0.393272 39.8075 0.0235006 40.729H1.74317C2.24794 39.7012 3.09903 38.2598 4.49594 36.8421C5.65808 35.6607 6.8261 34.8811 7.72411 34.3671C8.98604 35.141 10.7645 36.0565 13.0184 36.7063C15.4894 37.427 17.661 37.5746 19.2223 37.5628V40.7231H20.7777V37.5746C22.3213 37.551 24.3815 37.3738 26.7175 36.73C29.0711 36.0802 30.9493 35.1645 32.2934 34.3848C33.2149 34.9105 34.4299 35.7316 35.639 36.9839C36.9655 38.3602 37.7873 39.7365 38.2862 40.7407H40C39.5657 39.6479 39.0492 38.7088 38.4975 37.8877C33.3735 30.2677 22.785 29.7005 20.0382 29.6296C18.1776 29.5883 15.5011 29.7359 12.4373 30.6397C9.53781 31.4962 7.30736 32.725 5.79306 33.7174C6.245 32.9495 6.85549 32.0456 7.68307 31.1123C8.42849 30.2735 9.16797 29.6119 9.8136 29.1039C9.81348 29.0971 9.8136 29.0901 9.81349 29.0832C10.9735 28.1591 12.0409 27.4985 12.8717 27.0424C13.8694 26.4931 15.0257 25.8668 16.6633 25.4415C17.7021 25.1698 18.6002 25.0695 19.2458 25.034V24.2011H18.0367C17.802 24.1243 17.3441 23.9412 16.9391 23.5041C16.851 23.4096 16.2817 22.7834 16.2348 21.8501C16.1819 20.8164 16.81 20.0603 17.1915 19.6055C17.8371 18.8257 18.2421 18.8316 18.9523 18.0519C19.5275 17.4198 19.8504 16.77 20.0382 16.3093C20.0382 16.3093 20.4901 17.4553 21.0829 18.1109C21.7168 18.8139 22.0689 18.7843 22.6969 19.4991C23.0491 19.9008 23.7887 20.7337 23.7534 21.8797C23.7476 22.1041 23.7124 22.8602 23.1372 23.5041C22.738 23.9471 22.2744 24.1243 22.0396 24.2011H20.719V25.028C22.1746 25.282 23.7653 25.6247 25.4615 26.1091C27.2223 26.6053 28.8912 27.1221 30.3057 27.6892C31.0453 27.9019 31.7946 28.2238 32.6632 28.59C33.4967 28.9444 34.2421 29.3166 34.8936 29.6828V12.4343H40V11.7255L20.0264 0ZM19.2223 31.195V36.0092C17.8782 36.0033 16.0998 35.8734 14.0866 35.3536C12.1321 34.8515 10.5532 34.1427 9.39105 33.5106C10.6119 32.914 12.2202 32.2642 14.1629 31.8094C16.1233 31.3486 17.8606 31.2068 19.2223 31.195ZM20.766 31.195C22.1277 31.2068 23.865 31.3486 25.8254 31.8094C27.7682 32.2642 29.3764 32.914 30.5973 33.5106C29.4351 34.1427 27.8562 34.8515 25.9017 35.3536C23.8885 35.8734 22.1101 36.0033 20.766 36.0092V31.195Z" fill="#74B9FF"/>
</svg>
