<svg width="32" height="29" viewBox="0 0 32 29" fill="none" xmlns="http://www.w3.org/2000/svg">
<g opacity="0.4">
<path fill-rule="evenodd" clip-rule="evenodd" d="M0 4C0 3.46957 0.240816 2.96086 0.66947 2.58579C1.09812 2.21071 1.67951 2 2.28571 2H29.7143C30.3205 2 30.9019 2.21071 31.3305 2.58579C31.7592 2.96086 32 3.46957 32 4C32 4.53043 31.7592 5.03914 31.3305 5.41421C30.9019 5.78929 30.3205 6 29.7143 6H2.28571C1.67951 6 1.09812 5.78929 0.66947 5.41421C0.240816 5.03914 0 4.53043 0 4ZM0 14C0 13.4696 0.240816 12.9609 0.66947 12.5858C1.09812 12.2107 1.67951 12 2.28571 12H29.7143C30.3205 12 30.9019 12.2107 31.3305 12.5858C31.7592 12.9609 32 13.4696 32 14C32 14.5304 31.7592 15.0391 31.3305 15.4142C30.9019 15.7893 30.3205 16 29.7143 16H2.28571C1.67951 16 1.09812 15.7893 0.66947 15.4142C0.240816 15.0391 0 14.5304 0 14ZM0 24C0 23.4696 0.240816 22.9609 0.66947 22.5858C1.09812 22.2107 1.67951 22 2.28571 22H29.7143C30.3205 22 30.9019 22.2107 31.3305 22.5858C31.7592 22.9609 32 23.4696 32 24C32 24.5304 31.7592 25.0391 31.3305 25.4142C30.9019 25.7893 30.3205 26 29.7143 26H2.28571C1.67951 26 1.09812 25.7893 0.66947 25.4142C0.240816 25.0391 0 24.5304 0 24Z" fill="black"/>
</g>
</svg>
