<svg width="40" height="40" viewBox="0 0 40 40" fill="none" xmlns="http://www.w3.org/2000/svg">
<path d="M33.3333 20C33.3333 23.5363 31.9285 26.9276 29.428 29.4281C26.9275 31.9286 23.5361 33.3334 19.9999 33.3334C16.4637 33.3334 13.0723 31.9286 10.5718 29.4281C8.07134 26.9276 6.66659 23.5363 6.66659 20C6.66659 16.4638 8.07134 13.0724 10.5718 10.572C13.0723 8.07147 16.4637 6.66671 19.9999 6.66671C23.5361 6.66671 26.9275 8.07147 29.428 10.572C31.9285 13.0724 33.3333 16.4638 33.3333 20ZM19.9999 36.6667C29.2049 36.6667 36.6666 29.205 36.6666 20C36.6666 10.795 29.2049 3.33337 19.9999 3.33337C10.7949 3.33337 3.33325 10.795 3.33325 20C3.33325 29.205 10.7949 36.6667 19.9999 36.6667ZM20.5966 15.6367C18.9766 16.3112 15.7371 17.7073 10.8783 19.825C10.0883 20.1384 9.67492 20.445 9.63825 20.745C9.57492 21.2517 10.2099 21.4517 11.0749 21.7234L11.4383 21.84C12.2883 22.1167 13.4349 22.44 14.0299 22.4534C14.5699 22.4645 15.1721 22.2423 15.8366 21.7867C20.3766 18.72 22.7199 17.1706 22.8666 17.1384C22.9716 17.115 23.1149 17.085 23.2116 17.1717C23.3099 17.2584 23.2999 17.4217 23.2899 17.4667C23.2266 17.735 20.7333 20.0534 19.4433 21.2517C19.061 21.6117 18.6816 21.9745 18.3049 22.34C17.5149 23.1017 16.9216 23.6734 18.3383 24.6067C19.7733 25.5534 21.2216 26.4967 22.6216 27.495C23.3116 27.9884 23.9316 28.4284 24.6983 28.36C25.1433 28.3184 25.6033 27.9 25.8366 26.65C26.3899 23.7 27.4749 17.3034 27.7249 14.6667C27.7394 14.448 27.7299 14.2283 27.6966 14.0117C27.6769 13.8373 27.5924 13.6767 27.4599 13.5617C27.2599 13.3984 26.9516 13.365 26.8149 13.3667C26.1883 13.3784 25.2266 13.7117 20.5983 15.6367" fill="#74B9FF"/>
</svg>
