<svg width="23" height="23" viewBox="0 0 23 23" fill="none" xmlns="http://www.w3.org/2000/svg">
<path d="M1.74894 5.45562C1.74274 5.34087 1.71399 5.22846 1.66434 5.12482C1.6147 5.02117 1.54512 4.92832 1.45959 4.85157C1.37406 4.77481 1.27425 4.71566 1.16586 4.67747C1.05747 4.63929 0.942613 4.62283 0.82786 4.62904C0.713107 4.63524 0.600699 4.66399 0.497055 4.71364C0.393411 4.76328 0.300561 4.83286 0.223806 4.91839C0.14705 5.00392 0.087893 5.10373 0.0497114 5.21212C0.0115298 5.32052 -0.00492839 5.43537 0.00127657 5.55012L1.74894 5.45562ZM2.87594 0.98379C2.72272 1.15312 2.64177 1.37564 2.65037 1.60384C2.65897 1.83205 2.75645 2.04784 2.92198 2.20515C3.08752 2.36247 3.308 2.44883 3.53634 2.44581C3.76469 2.44278 3.9828 2.3506 4.14411 2.18896L2.87594 0.98379ZM9.81294 20.4905C9.91024 20.5532 10.019 20.5959 10.133 20.6163C10.2469 20.6367 10.3638 20.6342 10.4767 20.6091C10.5897 20.584 10.6966 20.5367 10.7912 20.47C10.8858 20.4033 10.9662 20.3185 11.0278 20.2205C11.0894 20.1225 11.1309 20.0132 11.15 19.8991C11.1691 19.7849 11.1653 19.6681 11.1389 19.5554C11.1125 19.4427 11.064 19.3363 10.9962 19.2425C10.9284 19.1487 10.8427 19.0692 10.7439 19.0088L9.81294 20.4905ZM15.0034 20.7775C14.7762 20.73 14.5393 20.7747 14.3451 20.9018C14.1508 21.0289 14.0149 21.228 13.9674 21.4553C13.9199 21.6826 13.9647 21.9194 14.0918 22.1137C14.2189 22.308 14.418 22.4438 14.6453 22.4913L15.0034 20.7775ZM15.6241 15.5111L16.1549 14.9511L14.8856 13.746L14.3548 14.306L15.6241 15.5111ZM17.9038 14.7155L20.1321 15.9988L21.0059 14.4821L18.7764 13.1988L17.9038 14.7155ZM20.5626 18.6588L18.9048 20.403L20.1741 21.6093L21.8308 19.864L20.5626 18.6588ZM7.12378 15.9953C2.60178 11.2341 1.84344 7.21729 1.74894 5.45562L0.00127657 5.55012C0.117943 7.70846 1.03261 12.1231 5.85561 17.2005L7.12378 15.9953ZM8.72911 8.25212L9.06278 7.89979L7.79461 6.69462L7.45978 7.04696L8.72911 8.25212ZM9.32644 3.51312L7.85528 1.43296L6.42611 2.44329L7.89611 4.52346L9.32644 3.51312ZM8.09328 7.64896C7.88331 7.44659 7.67136 7.2463 7.45744 7.04812L7.45511 7.05046L7.45161 7.05396L7.39328 7.12162C7.27904 7.27308 7.18855 7.44106 7.12494 7.61979C7.01061 7.94062 6.94994 8.36529 7.02694 8.89496C7.17861 9.93562 7.86111 11.3345 9.64261 13.2116L10.9119 12.0053C9.24594 10.2518 8.83528 9.17262 8.75828 8.64062C8.72094 8.38396 8.75828 8.24979 8.77344 8.20662L8.78278 8.18446L8.75011 8.22762L8.72911 8.25212L8.09328 7.64896ZM9.64261 13.2105C11.4194 15.0818 12.7611 15.8168 13.7843 15.9836C14.3104 16.0688 14.7363 16 15.0583 15.8728C15.2373 15.8032 15.4036 15.7047 15.5506 15.5811L15.5914 15.5415L15.6078 15.5251L15.6159 15.5181L15.6194 15.5146L15.6206 15.5123C15.6206 15.5123 15.6229 15.5111 14.9883 14.908C14.3536 14.306 14.3548 14.3048 14.3548 14.3036L14.3571 14.3025L14.3594 14.299L14.3664 14.2931L14.4213 14.2441C14.4322 14.2379 14.4302 14.2383 14.4154 14.2453C14.3921 14.2546 14.2871 14.292 14.0654 14.2558C13.5964 14.1788 12.5838 13.7658 10.9119 12.0053L9.64261 13.2105ZM7.85528 1.43296C6.67228 -0.240044 4.30628 -0.523544 2.87594 0.98379L4.14411 2.18896C4.75428 1.54729 5.82878 1.59746 6.42611 2.44329L7.85528 1.43296ZM18.9048 20.403C18.5793 20.746 18.2398 20.9303 17.9084 20.963L18.0799 22.7036C18.9514 22.6185 19.6573 22.1541 20.1741 21.6093L18.9048 20.403ZM9.06278 7.89979C10.1921 6.71096 10.2714 4.85129 9.32644 3.51312L7.89728 4.52346C8.38961 5.21996 8.31378 6.14862 7.79461 6.69462L9.06278 7.89979ZM20.1321 15.9988C21.0899 16.5506 21.2778 17.9063 20.5626 18.6588L21.8308 19.864C23.3533 18.261 22.9099 15.5788 21.0059 14.4821L20.1321 15.9988ZM16.1549 14.9511C16.6041 14.4775 17.3053 14.3713 17.9038 14.7155L18.7764 13.1988C17.4943 12.4615 15.9064 12.6726 14.8856 13.746L16.1549 14.9511ZM10.7439 19.0088C9.59711 18.2878 8.37561 17.3125 7.12378 15.9953L5.85561 17.2005C7.20194 18.618 8.53544 19.6878 9.81294 20.4905L10.7439 19.0088ZM17.9073 20.963C16.9355 21.0477 15.9565 20.9852 15.0034 20.7775L14.6453 22.4913C15.7729 22.7349 16.9309 22.8065 18.0799 22.7036L17.9073 20.963Z" fill="black"/>
</svg>
