<svg width="40" height="40" viewBox="0 0 40 40" fill="none" xmlns="http://www.w3.org/2000/svg">
<path d="M23.3333 17.915V11.755C23.3333 10.3667 23.0816 10.0884 21.7 10.0884L17.7833 10C16.5633 10 15.9533 10 15.7066 10.395C15.46 10.79 15.7333 11.3317 16.2783 12.4117C16.5816 13.0117 16.745 13.4467 16.745 14.12V18.5534C16.745 19.9534 16.745 20.655 16.2116 20.8634C15.6783 21.07 15.2366 20.6 14.35 19.66C12.1833 17.3534 11.0533 14.4734 10.3116 11.3334C10.1583 10.6834 10.0816 10.3584 9.85164 10.1784C9.62164 9.99838 9.29331 10 8.63997 10H4.9733C4.16997 10 3.7683 10 3.51664 10.2834C3.26664 10.5684 3.31497 10.9317 3.41164 11.6567C4.29164 18.2017 10.0466 28.9334 20.6783 29.9567C22.5616 30.1367 23.3333 29.6284 23.3333 27.565C23.3333 26.395 23.3083 24.505 24.78 24.2567C25.5516 24.1267 26.07 24.4017 26.9316 25.1234C28.425 26.3767 29.2083 27.9067 29.7533 29.0684C30.115 29.8384 30.3833 30 31.2333 30H34.69C36.4366 30 36.9116 29.5734 36.1333 27.9334C35.2537 26.0941 34.0083 24.4535 32.4733 23.1117C31.4133 22.2 30.885 21.745 30.8566 21.4084C30.825 21.0734 31.2133 20.5984 31.99 19.6484C33.49 17.8117 35.5333 14.93 36.4866 11.8717C36.96 10.355 36.515 10 34.98 10H31.875C30.37 10 30.3716 9.94838 30.0166 11.655C29.44 14.4234 27.5533 17.085 25.78 18.8967C24.9383 19.7567 24.43 20.275 23.905 20.0634C23.38 19.8517 23.3333 19.2084 23.3333 17.915Z" stroke="#74B9FF" stroke-width="1.5" stroke-linecap="round" stroke-linejoin="round"/>
</svg>
