<svg width="27" height="25" viewBox="0 0 27 25" fill="none" xmlns="http://www.w3.org/2000/svg">
<path d="M21.04 20C21.7375 20 22.4065 20.2634 22.8997 20.7322C23.3929 21.2011 23.67 21.837 23.67 22.5C23.67 23.163 23.3929 23.7989 22.8997 24.2678C22.4065 24.7366 21.7375 25 21.04 25C20.3425 25 19.6735 24.7366 19.1803 24.2678C18.6871 23.7989 18.41 23.163 18.41 22.5C18.41 21.1125 19.5803 20 21.04 20ZM0 1.25C0 0.559644 0.559644 0 1.25 0H2.9056C3.75957 0 4.5396 0.484489 4.9181 1.25C5.2966 2.01551 6.07663 2.5 6.9306 2.5H24.985C25.3338 2.5 25.6682 2.6317 25.9148 2.86612C26.1615 3.10054 26.3 3.41848 26.3 3.75C26.3 3.9625 26.2342 4.175 26.1422 4.375L21.4345 12.4625C20.9874 13.225 20.1195 13.75 19.1332 13.75H11.2442C10.0632 13.75 8.97148 14.3784 8.3783 15.3996L8.19284 15.7189C8.1664 15.7644 8.14621 15.8133 8.13282 15.8642C8.12003 15.9129 8.11049 15.9638 8.12315 16.0125C8.1374 16.0673 8.16714 16.1179 8.20984 16.1585C8.27149 16.2171 8.35511 16.25 8.4423 16.25H22.42C23.1104 16.25 23.67 16.8096 23.67 17.5C23.67 18.1904 23.1104 18.75 22.42 18.75H7.89C7.19248 18.75 6.52353 18.4866 6.03031 18.0178C5.53709 17.5489 5.26 16.913 5.26 16.25C5.26 15.8125 5.37835 15.4 5.5756 15.05C6.69152 13.1391 6.7686 10.7943 5.78059 8.81416L3.07877 3.39939C2.80377 2.84826 2.24079 2.5 1.62486 2.5H1.25C0.559644 2.5 0 1.94036 0 1.25ZM7.89 20C8.58752 20 9.25647 20.2634 9.74969 20.7322C10.2429 21.2011 10.52 21.837 10.52 22.5C10.52 23.163 10.2429 23.7989 9.74969 24.2678C9.25647 24.7366 8.58752 25 7.89 25C7.19248 25 6.52353 24.7366 6.03031 24.2678C5.53709 23.7989 5.26 23.163 5.26 22.5C5.26 21.1125 6.43035 20 7.89 20ZM17.9325 11.25C19.0427 11.25 20.0695 10.661 20.63 9.70277C21.8485 7.61949 20.346 5 17.9325 5H11.7998C9.48055 5 7.96943 7.4375 9.0009 9.5148C9.5287 10.5778 10.6131 11.25 11.7998 11.25H17.9325Z" fill="white"/>
</svg>
