<svg width="11" height="12" viewBox="0 0 11 12" fill="none" xmlns="http://www.w3.org/2000/svg">
<path d="M2.2 0C1.64772 0 1.2 0.447715 1.2 1V7.8C1.2 8.13137 0.931371 8.4 0.6 8.4C0.268629 8.4 0 8.66863 0 9C0 9.33137 0.268629 9.6 0.6 9.6C0.931371 9.6 1.2 9.86863 1.2 10.2V11.4C1.2 11.7314 1.46863 12 1.8 12C2.13137 12 2.4 11.7314 2.4 11.4V10.6C2.4 10.0477 2.84772 9.6 3.4 9.6H5.4C5.73137 9.6 6 9.33137 6 9C6 8.66863 5.73137 8.4 5.4 8.4H3.3C2.80294 8.4 2.4 7.99706 2.4 7.5C2.4 7.00294 2.80294 6.6 3.3 6.6H6.9C8.7156 6.6 10.2 5.1156 10.2 3.3C10.2 1.4844 8.7156 0 6.9 0H2.2ZM2.4 2.2C2.4 1.64772 2.84772 1.2 3.4 1.2H6.9C8.0664 1.2 9 2.1336 9 3.3C9 4.4664 8.0664 5.4 6.9 5.4H3.4C2.84772 5.4 2.4 4.95228 2.4 4.4V2.2Z" fill="black"/>
</svg>
